<svg width="28" height="28" viewBox="0 0 28 28" fill="none" xmlns="http://www.w3.org/2000/svg">
<path d="M25.4397 11.7148H24.4999V11.6663H13.9999V16.333H20.5933C19.6314 19.0496 17.0467 20.9997 13.9999 20.9997C10.1342 20.9997 6.99992 17.8654 6.99992 13.9997C6.99992 10.1339 10.1342 6.99967 13.9999 6.99967C15.7843 6.99967 17.4078 7.67284 18.6438 8.77242L21.9438 5.47251C19.8601 3.53059 17.0729 2.33301 13.9999 2.33301C7.557 2.33301 2.33325 7.55676 2.33325 13.9997C2.33325 20.4426 7.557 25.6663 13.9999 25.6663C20.4428 25.6663 25.6666 20.4426 25.6666 13.9997C25.6666 13.2174 25.5861 12.4538 25.4397 11.7148Z" fill="#FFC107"/>
<path d="M3.67847 8.56943L7.51155 11.3805C8.54872 8.81267 11.0606 6.99967 14 6.99967C15.7844 6.99967 17.4078 7.67284 18.6439 8.77242L21.9438 5.47251C19.8601 3.53059 17.073 2.33301 14 2.33301C9.5188 2.33301 5.63263 4.86292 3.67847 8.56943Z" fill="#FF3D00"/>
<path d="M14 25.6671C17.0135 25.6671 19.7517 24.5138 21.8219 22.6384L18.2111 19.5829C17.0004 20.5036 15.521 21.0016 14 21.0004C10.9655 21.0004 8.38894 19.0655 7.41827 16.3652L3.61377 19.2965C5.5446 23.0747 9.46577 25.6671 14 25.6671Z" fill="#4CAF50"/>
<path d="M25.4398 11.7154H24.5V11.667H14V16.3337H20.5934C20.1333 17.6266 19.3045 18.7563 18.2093 19.5834L18.2111 19.5822L21.8219 22.6377C21.5664 22.8699 25.6667 19.8337 25.6667 14.0003C25.6667 13.2181 25.5862 12.4545 25.4398 11.7154Z" fill="#1976D2"/>
</svg>
