<svg width="24" height="24" viewBox="0 0 24 24" fill="none" xmlns="http://www.w3.org/2000/svg">
<path fill-rule="evenodd" clip-rule="evenodd" d="M11.0955 17.961C11.3879 17.9868 11.6893 18.0003 12 18.0003C16.909 18.0003 21 12.0003 21 12.0003C21 12.0003 20.3303 11.0182 19.2078 9.84863L11.0955 17.961Z" fill="#979797"/>
<path fill-rule="evenodd" clip-rule="evenodd" d="M12 6C5.45455 6 3 12 3 12C3 12 5.45455 18 12 18C16.9091 18 21 12 21 12C21 12 16.9091 6 12 6ZM9 12C9 13.6569 10.3431 15 12 15C13.6569 15 15 13.6569 15 12C15 10.3431 13.6569 9 12 9C10.3431 9 9 10.3431 9 12Z" fill="#979797"/>
</svg>
