<svg width="22" height="24" viewBox="0 0 22 24" fill="none" xmlns="http://www.w3.org/2000/svg">
<path d="M4.875 6.75C4.875 8.37445 5.52031 9.93237 6.66897 11.081C7.81763 12.2297 9.37555 12.875 11 12.875C12.6245 12.875 14.1824 12.2297 15.331 11.081C16.4797 9.93237 17.125 8.37445 17.125 6.75C17.125 5.12555 16.4797 3.56763 15.331 2.41897C14.1824 1.27031 12.6245 0.625 11 0.625C9.37555 0.625 7.81763 1.27031 6.66897 2.41897C5.52031 3.56763 4.875 5.12555 4.875 6.75ZM19.75 23.375H1.375C1.14294 23.375 0.920376 23.2828 0.756282 23.1187C0.592187 22.9546 0.5 22.7321 0.5 22.5V19.875C0.5 18.7147 0.960936 17.6019 1.78141 16.7814C2.60188 15.9609 3.71468 15.5 4.875 15.5H17.125C18.2853 15.5 19.3981 15.9609 20.2186 16.7814C21.0391 17.6019 21.5 18.7147 21.5 19.875V22.5C21.5 22.7321 21.4078 22.9546 21.2437 23.1187C21.0796 23.2828 20.8571 23.375 20.625 23.375H19.75Z" fill="#CCD1D6"/>
</svg>
