<svg width="22" height="22" viewBox="0 0 22 22" fill="none" xmlns="http://www.w3.org/2000/svg">
<ellipse cx="10.6142" cy="6.67137" rx="4.37986" ry="4.37986" stroke="#807A7A" stroke-width="1.5" stroke-linecap="round" stroke-linejoin="round"/>
<path fill-rule="evenodd" clip-rule="evenodd" d="M3.66676 17.1426C3.66559 16.8347 3.73445 16.5306 3.86814 16.2532C4.28766 15.4142 5.47073 14.9695 6.45242 14.7681C7.16042 14.617 7.87819 14.5161 8.6004 14.466C9.93752 14.3486 11.2824 14.3486 12.6195 14.466C13.3416 14.5166 14.0594 14.6176 14.7674 14.7681C15.7491 14.9695 16.9322 15.3722 17.3517 16.2532C17.6206 16.8186 17.6206 17.475 17.3517 18.0404C16.9322 18.9214 15.7491 19.3241 14.7674 19.5171C14.0603 19.6745 13.3423 19.7782 12.6195 19.8276C11.5312 19.9198 10.4378 19.9367 9.34716 19.8779C9.09544 19.8779 8.85212 19.8779 8.6004 19.8276C7.88033 19.7789 7.16504 19.6751 6.46081 19.5171C5.47073 19.3241 4.29605 18.9214 3.86814 18.0404C3.73513 17.7598 3.66634 17.4531 3.66676 17.1426Z" stroke="#807A7A" stroke-width="1.5" stroke-linecap="round" stroke-linejoin="round"/>
</svg>
