<svg width="29" height="24" viewBox="0 0 29 24" fill="none" xmlns="http://www.w3.org/2000/svg">
<path d="M23.6428 2.57129V19.4284C23.6425 19.5712 23.6957 19.7089 23.7919 19.8145C23.8881 19.92 24.0204 19.9857 24.1626 19.9986C24.3048 20.0115 24.4467 19.9707 24.5603 19.8842C24.6739 19.7977 24.7511 19.6718 24.7765 19.5313L24.7856 19.4284V3.99986H26.2142C26.7161 3.99988 27.1997 4.18863 27.5689 4.52864C27.9382 4.86865 28.1661 5.33506 28.2074 5.83529L28.2142 5.99986V19.7141C28.2143 20.6629 27.8513 21.5757 27.1997 22.2653C26.5482 22.9549 25.6574 23.369 24.7102 23.4227L24.4999 23.4284H4.49993C3.5512 23.4285 2.63841 23.0655 1.94881 22.414C1.25921 21.7624 0.845072 20.8716 0.791359 19.9244L0.785645 19.7141V2.57129C0.785663 2.06936 0.974411 1.58578 1.31442 1.21656C1.65443 0.84733 2.12084 0.619448 2.62107 0.578146L2.78564 0.571289H21.6428C22.1447 0.571308 22.6283 0.760056 22.9975 1.10007C23.3667 1.44008 23.5946 1.90649 23.6359 2.40672L23.6428 2.57129ZM9.63936 10.8616H6.78564C6.28371 10.8616 5.80014 11.0503 5.43091 11.3904C5.06169 11.7304 4.8338 12.1968 4.7925 12.697L4.78564 12.8616V15.7141C4.78566 16.2161 4.97441 16.6997 5.31442 17.0689C5.65443 17.4381 6.12084 17.666 6.62107 17.7073L6.78564 17.7141H9.63936C10.1415 17.7141 10.6252 17.5252 10.9945 17.185C11.3637 16.8447 11.5915 16.378 11.6325 15.8776L11.6382 15.7141V12.8616C11.6385 12.3594 11.4499 11.8756 11.1098 11.5061C10.7698 11.1367 10.3032 10.9086 9.80279 10.8673L9.63936 10.8616ZM18.7856 15.9999H14.7856L14.6691 16.0079C14.4639 16.0361 14.2759 16.1376 14.1398 16.2937C14.0037 16.4498 13.9288 16.6499 13.9288 16.857C13.9288 17.0641 14.0037 17.2642 14.1398 17.4203C14.2759 17.5764 14.4639 17.6779 14.6691 17.7061L14.7856 17.7141H18.7856L18.9022 17.7061C19.1074 17.6779 19.2954 17.5764 19.4315 17.4203C19.5676 17.2642 19.6425 17.0641 19.6425 16.857C19.6425 16.6499 19.5676 16.4498 19.4315 16.2937C19.2954 16.1376 19.1074 16.0361 18.9022 16.0079L18.7856 15.9999ZM6.78564 12.5759H9.63936C9.70357 12.5759 9.7659 12.5976 9.81629 12.6374C9.86667 12.6772 9.90218 12.7328 9.91707 12.7953L9.92507 12.8616V15.7141C9.92497 15.7785 9.90313 15.841 9.86309 15.8914C9.82306 15.9418 9.76718 15.9772 9.7045 15.9919L9.63936 15.9999H6.78564C6.72128 15.9998 6.65883 15.9779 6.60842 15.9379C6.55802 15.8978 6.52261 15.842 6.50793 15.7793L6.49993 15.7141V12.8616C6.49978 12.797 6.5215 12.7343 6.56156 12.6837C6.60161 12.633 6.65764 12.5974 6.7205 12.5827L6.78564 12.5759ZM18.7856 10.8616H14.7856L14.6691 10.8684C14.4631 10.8957 14.274 10.997 14.137 11.1533C14 11.3096 13.9245 11.5103 13.9245 11.7181C13.9245 11.926 14 12.1267 14.137 12.283C14.274 12.4393 14.4631 12.5406 14.6691 12.5679L14.7856 12.5759H18.7856L18.9022 12.5679C19.1082 12.5406 19.2973 12.4393 19.4343 12.283C19.5712 12.1267 19.6468 11.926 19.6468 11.7181C19.6468 11.5103 19.5712 11.3096 19.4343 11.1533C19.2973 10.997 19.1082 10.8957 18.9022 10.8684L18.7856 10.8616ZM18.7856 5.71072H5.64279L5.52622 5.71872C5.32106 5.74695 5.13306 5.84849 4.99697 6.00459C4.86088 6.16068 4.78591 6.36077 4.78591 6.56786C4.78591 6.77495 4.86088 6.97504 4.99697 7.13113C5.13306 7.28723 5.32106 7.38878 5.52622 7.417L5.64279 7.425H18.7856L18.9022 7.417C19.1074 7.38878 19.2954 7.28723 19.4315 7.13113C19.5676 6.97504 19.6425 6.77495 19.6425 6.56786C19.6425 6.36077 19.5676 6.16068 19.4315 6.00459C19.2954 5.84849 19.1074 5.74695 18.9022 5.71872L18.7856 5.71072Z" fill="#CCCCCC"/>
</svg>
